# xmcd
#
# Track frame offsets: 
#        150
#        4084
#        22878
#        43857
#        66197
#        88634
#        108628
#        132082
#        152317
#        158814
#        179956
#        194918
#        210557
#        228976
#        247563
#        253550
#
# Disc length: 3712 seconds
#
# Revision: 1
# Processed by: cddbd v1.5.2PL0 Copyright (c) Steve Scherf et al.
# Submitted via: ExactAudioCopyFreeDBPlugin 1.0
#
DISCID=d00e7e10
DTITLE=India.Arie - Acoustic Soul
DYEAR=2001
DGENRE=R&B
TTITLE0=Intro
TTITLE1=Video
TTITLE2=Promises
TTITLE3=Brown Skin
TTITLE4=Strength, Courage and Wisdom
TTITLE5=Nature
TTITLE6=Back To The Middle
TTITLE7=Ready For Love
TTITLE8=Interlude
TTITLE9=Always In My Head
TTITLE10=I See God In You
TTITLE11=Simple
TTITLE12=Part Of My Life
TTITLE13=Beautiful
TTITLE14=Outro
TTITLE15=Wonderful
EXTD=
EXTT0=
EXTT1=
EXTT2=
EXTT3=
EXTT4=
EXTT5=
EXTT6=
EXTT7=
EXTT8=
EXTT9=
EXTT10=
EXTT11=
EXTT12=
EXTT13=
EXTT14=
EXTT15=
PLAYORDER=
